<?xml version="1.0" standalone="no"?>
<!DOCTYPE svg PUBLIC "-//W3C//DTD SVG 20010904//EN"
 "http://www.w3.org/TR/2001/REC-SVG-20010904/DTD/svg10.dtd">
<svg version="1.0" xmlns="http://www.w3.org/2000/svg"
 width="118.000000pt" height="118.000000pt" viewBox="0 0 118.000000 118.000000"
 preserveAspectRatio="xMidYMid meet">
<metadata>
Created by potrace 1.14, written by Peter Selinger 2001-2017
</metadata>
<g transform="translate(0.000000,118.000000) scale(0.100000,-0.100000)"
fill="#000000" stroke="none">
<path d="M0 657 l0 -395 188 -4 c139 -4 200 -9 239 -22 52 -16 111 -64 145
-116 l17 -25 17 25 c38 54 95 100 147 116 39 13 100 18 240 22 l187 4 0 395 0
396 -192 -6 c-210 -5 -284 -20 -360 -72 l-38 -26 -37 26 c-77 52 -151 67 -360
72 l-193 6 0 -396z m410 267 c65 -19 111 -51 150 -106 l29 -39 30 42 c66 91
146 120 335 122 l121 2 0 -290 0 -290 -150 -6 c-165 -7 -225 -21 -296 -68 -43
-29 -44 -30 -64 -12 -58 53 -132 72 -310 80 l-150 6 -3 280 c-1 154 0 286 3
294 7 19 227 8 305 -15z"/>
<path d="M320 727 c-41 -21 -70 -74 -70 -128 0 -86 80 -148 165 -129 45 10 52
17 37 32 -21 21 -14 66 13 84 14 9 32 14 40 10 24 -9 19 56 -6 88 -41 52 -122
72 -179 43z"/>
<path d="M735 730 c-11 -4 -30 -19 -43 -32 -90 -98 3 -257 133 -228 45 10 52
17 37 32 -21 21 -14 66 13 84 14 9 32 14 40 10 22 -8 19 42 -5 81 -33 54 -113
79 -175 53z"/>
</g>
</svg>
